<svg xmlns="http://www.w3.org/2000/svg" xmlns:xlink="http://www.w3.org/1999/xlink" viewBox="0 0 42.39 104.67"><defs><style>.cls-1,.cls-9{fill:none;}.cls-2{clip-path:url(#clip-path);}.cls-3{fill:#cbcbcb;}.cls-4{opacity:0.75;}.cls-5{clip-path:url(#clip-path-3);}.cls-6{fill:#c4da00;}.cls-7{opacity:0.5;}.cls-8{clip-path:url(#clip-path-5);}.cls-9{stroke:#c4da00;stroke-width:1.17px;}</style><clipPath id="clip-path" transform="translate(0 0)"><rect class="cls-1" width="42.39" height="104.67"/></clipPath><clipPath id="clip-path-3" transform="translate(0 0)"><rect class="cls-1" x="0.06" y="39.51" width="44.04" height="23.73"/></clipPath><clipPath id="clip-path-5" transform="translate(0 0)"><rect class="cls-1" x="0.23" y="-3.56" width="37.42" height="13.14"/></clipPath></defs><g id="图层_2" data-name="图层 2"><g id="图层_1-2" data-name="图层 1"><g class="cls-2"><g class="cls-2"><path class="cls-3" d="M35.4,35.06H35a1.62,1.62,0,0,1-.23.82,4.1,4.1,0,0,1-1.53,1.42A15.15,15.15,0,0,1,28.62,39a32,32,0,0,1-6.57.65,27.79,27.79,0,0,1-9.32-1.43A8.85,8.85,0,0,1,10,36.7a3.13,3.13,0,0,1-.69-.82,1.62,1.62,0,0,1-.23-.82,1.59,1.59,0,0,1,.23-.81,4.19,4.19,0,0,1,1.53-1.43,15.43,15.43,0,0,1,4.66-1.67,32,32,0,0,1,6.57-.65,28.07,28.07,0,0,1,9.32,1.42,9.28,9.28,0,0,1,2.75,1.5,3.33,3.33,0,0,1,.69.83,1.59,1.59,0,0,1,.23.81h.73a2.34,2.34,0,0,0-.32-1.17,4.83,4.83,0,0,0-1.79-1.7,15.74,15.74,0,0,0-4.89-1.77,32.85,32.85,0,0,0-6.72-.66,28.43,28.43,0,0,0-9.57,1.47A8.29,8.29,0,0,0,9.7,32.66a4.78,4.78,0,0,0-1,1,2.77,2.77,0,0,0-.41,1.22,3,3,0,0,0,.39,1.33,5,5,0,0,0,1.79,1.7,16.26,16.26,0,0,0,4.89,1.77,32.85,32.85,0,0,0,6.72.66,28.69,28.69,0,0,0,9.57-1.47,9.51,9.51,0,0,0,3-1.64,3.55,3.55,0,0,0,.86-1,2.38,2.38,0,0,0,.32-1.18Z" transform="translate(0 0)"/><path class="cls-3" d="M41.66,33.87V84.36a.37.37,0,1,0,.73,0V33.87a.37.37,0,1,0-.73,0" transform="translate(0 0)"/><path class="cls-3" d="M42,34.25h-.37a5,5,0,0,1-1.48,3.35,16.26,16.26,0,0,1-7.09,4A37.82,37.82,0,0,1,22,43.14,34.32,34.32,0,0,1,8,40.46,13,13,0,0,1,3.85,37.6a5,5,0,0,1-1.48-3.35,5,5,0,0,1,1.48-3.36,16.16,16.16,0,0,1,7.09-4A37.54,37.54,0,0,1,22,25.35,34.27,34.27,0,0,1,36,28a12.92,12.92,0,0,1,4.17,2.86,5,5,0,0,1,1.48,3.36h.73a5.73,5.73,0,0,0-1.67-3.86,16.84,16.84,0,0,0-7.41-4.17A38.4,38.4,0,0,0,22,24.62,34.93,34.93,0,0,0,7.71,27.37a13.85,13.85,0,0,0-4.4,3,5.73,5.73,0,0,0-1.67,3.86A5.71,5.71,0,0,0,3.31,38.1a17,17,0,0,0,7.41,4.18A38.43,38.43,0,0,0,22,43.87a35.09,35.09,0,0,0,14.3-2.74,13.76,13.76,0,0,0,4.4-3,5.71,5.71,0,0,0,1.67-3.85Z" transform="translate(0 0)"/><path class="cls-3" d="M41.66,84.36a5,5,0,0,1-1.48,3.36,16.18,16.18,0,0,1-7.08,4A37.59,37.59,0,0,1,22,93.26,34.49,34.49,0,0,1,8,90.58a13.2,13.2,0,0,1-4.17-2.86,5,5,0,0,1-1.48-3.36.37.37,0,1,0-.73,0,5.69,5.69,0,0,0,1.67,3.85,16.8,16.8,0,0,0,7.41,4.18A38.42,38.42,0,0,0,22,94a34.92,34.92,0,0,0,14.3-2.75,13.76,13.76,0,0,0,4.41-3,5.72,5.72,0,0,0,1.66-3.85.37.37,0,1,0-.73,0" transform="translate(0 0)"/><path class="cls-3" d="M22,74.92A34.84,34.84,0,0,0,7.79,77.65a13.58,13.58,0,0,0-4.35,3A5.7,5.7,0,0,0,1.83,84,.37.37,0,0,1,2,84a.33.33,0,0,1,.19.06,5.32,5.32,0,0,1,1.51-3.17,16.41,16.41,0,0,1,7.17-4A37.67,37.67,0,0,1,22,75.28h0A34.53,34.53,0,0,1,36.09,78a13.36,13.36,0,0,1,4.23,2.9,5.83,5.83,0,0,1,1.34,2.25v-1a7.13,7.13,0,0,0-1.07-1.52,16.67,16.67,0,0,0-7.33-4.12A38.07,38.07,0,0,0,22,74.92" transform="translate(0 0)"/><path class="cls-3" d="M41.66,82.15v1a4.14,4.14,0,0,1,.17.92A.36.36,0,0,1,42,84a.34.34,0,0,1,.17.05,5,5,0,0,0-.54-1.89" transform="translate(0 0)"/><path class="cls-3" d="M42,84a.43.43,0,0,0-.2.06c0,.1,0,.21,0,.31a.19.19,0,0,0,.19.18.18.18,0,0,0,.18-.18c0-.11,0-.22,0-.32A.34.34,0,0,0,42,84M2,84a.35.35,0,0,0-.18.05c0,.1,0,.21,0,.32a.18.18,0,0,0,.19.18.18.18,0,0,0,.18-.18c0-.1,0-.21,0-.31A.42.42,0,0,0,2,84" transform="translate(0 0)"/><path class="cls-3" d="M41.66,36.42a4.21,4.21,0,0,1-.12,1,.35.35,0,0,0,.26.44.36.36,0,0,0,.45-.26,5.21,5.21,0,0,0,.14-1.18.37.37,0,1,0-.73,0" transform="translate(0 0)"/><path class="cls-3" d="M42.16,35.73l-.12.32a.43.43,0,0,1,.16.05c0-.13,0-.25,0-.37" transform="translate(0 0)"/><path class="cls-3" d="M41.89,35.15h0a.18.18,0,0,0-.14.22,4.45,4.45,0,0,1,.12.73.36.36,0,0,1,.2-.06h0l.12-.32a3.12,3.12,0,0,0-.09-.44.18.18,0,0,0-.18-.14" transform="translate(0 0)"/><path class="cls-3" d="M42,36.05a.43.43,0,0,0-.2.06c0,.1,0,.21,0,.31a.19.19,0,0,0,.19.18.18.18,0,0,0,.18-.18c0-.11,0-.22,0-.32a.43.43,0,0,0-.16-.05h0" transform="translate(0 0)"/><path class="cls-3" d="M41.66,80.26a4.21,4.21,0,0,1-.12,1,.36.36,0,0,0,.26.44.37.37,0,0,0,.45-.26,5.21,5.21,0,0,0,.14-1.18.37.37,0,1,0-.73,0" transform="translate(0 0)"/><path class="cls-3" d="M40.65,83.05a8.32,8.32,0,0,1-1.44,1.48.37.37,0,0,0,.46.57,9.13,9.13,0,0,0,1.57-1.61.37.37,0,0,0-.59-.44m-3.17,2.67a20.8,20.8,0,0,1-1.89,1,.36.36,0,0,0-.19.48.37.37,0,0,0,.48.19,21.28,21.28,0,0,0,2-1,.37.37,0,0,0,.13-.5A.35.35,0,0,0,37.48,85.72Zm-3.88,1.7q-1,.33-2,.6a.37.37,0,0,0-.27.45.36.36,0,0,0,.45.26c.72-.18,1.42-.39,2.09-.61a.36.36,0,0,0,.24-.46A.38.38,0,0,0,33.6,87.42Zm-4.13,1.06c-.69.13-1.39.24-2.11.34a.37.37,0,0,0-.32.41.36.36,0,0,0,.41.31c.74-.09,1.46-.2,2.15-.34a.36.36,0,0,0,.3-.42.38.38,0,0,0-.43-.3M25.23,89c-.7.06-1.41.09-2.14.11a.38.38,0,0,0-.36.38.37.37,0,0,0,.38.35c.74,0,1.46-.05,2.17-.1a.37.37,0,0,0-.05-.74M21,89.14c-.72,0-1.44,0-2.14-.11a.37.37,0,0,0-.39.34.38.38,0,0,0,.34.4c.71,0,1.44.09,2.17.1a.36.36,0,0,0,.38-.35.38.38,0,0,0-.36-.38m-4.27-.32c-.72-.09-1.42-.21-2.11-.33a.36.36,0,0,0-.43.29.38.38,0,0,0,.3.43c.7.13,1.41.24,2.15.34a.37.37,0,0,0,.41-.32.36.36,0,0,0-.32-.41M12.49,88c-.72-.18-1.4-.38-2.05-.6a.36.36,0,0,0-.46.23.35.35,0,0,0,.23.46c.67.23,1.37.43,2.1.62a.37.37,0,0,0,.18-.71m-4-1.36a18.5,18.5,0,0,1-1.89-1,.37.37,0,1,0-.37.63,17.25,17.25,0,0,0,2,1,.37.37,0,1,0,.29-.67M4.83,84.54a8.67,8.67,0,0,1-1.44-1.48.37.37,0,0,0-.59.44,9.38,9.38,0,0,0,1.56,1.6.37.37,0,0,0,.52,0,.35.35,0,0,0,0-.51" transform="translate(0 0)"/><path class="cls-3" d="M2.5,81.26a3.76,3.76,0,0,1-.13-1,.37.37,0,1,0-.73,0,4.71,4.71,0,0,0,.15,1.18.37.37,0,0,0,.71-.18" transform="translate(0 0)"/><path class="cls-3" d="M2.14,79a.19.19,0,0,0-.18.14,5.34,5.34,0,0,0-.13.8.53.53,0,0,1,.18,0A.33.33,0,0,1,2.2,80a4.45,4.45,0,0,1,.12-.73A.19.19,0,0,0,2.19,79h0" transform="translate(0 0)"/><path class="cls-3" d="M2,79.89a.37.37,0,0,0-.18,0c0,.1,0,.21,0,.32a.18.18,0,0,0,.19.18.18.18,0,0,0,.18-.18c0-.1,0-.21,0-.31A.33.33,0,0,0,2,79.89" transform="translate(0 0)"/><path class="cls-3" d="M23.09,70.83a.18.18,0,1,0,0,.36c.72,0,1.44.06,2.14.11h0a.18.18,0,0,0,.18-.17.17.17,0,0,0-.17-.19c-.71-.06-1.43-.09-2.16-.11h0m-2.16,0h0c-.73,0-1.46,0-2.17.11a.18.18,0,0,0-.17.19.19.19,0,0,0,.19.17h0c.7,0,1.42-.09,2.15-.11a.18.18,0,0,0,.18-.18.19.19,0,0,0-.19-.18m6.47.32a.19.19,0,0,0-.19.16.19.19,0,0,0,.16.21q1.1.14,2.13.33h0a.19.19,0,0,0,0-.37c-.69-.13-1.41-.24-2.14-.33h0m-10.77,0h0c-.73.09-1.44.2-2.14.33a.18.18,0,0,0-.14.22.17.17,0,0,0,.18.15h0c.69-.12,1.4-.24,2.12-.33a.19.19,0,0,0,.16-.21.18.18,0,0,0-.18-.16m15,.8a.19.19,0,0,0-.18.14.18.18,0,0,0,.13.22c.72.19,1.4.39,2.06.61h.06a.17.17,0,0,0,.17-.13.18.18,0,0,0-.11-.23c-.67-.22-1.36-.43-2.09-.61h0M12.39,72h-.05c-.72.19-1.42.39-2.08.61a.18.18,0,0,0-.12.23.19.19,0,0,0,.17.13h.06c.66-.22,1.35-.42,2.06-.6a.19.19,0,0,0,.13-.23.17.17,0,0,0-.17-.13m23.34,1.37a.18.18,0,0,0-.08.35,17.89,17.89,0,0,1,1.91,1,.19.19,0,0,0,.25-.07.19.19,0,0,0-.06-.25,19.68,19.68,0,0,0-2-1,.1.1,0,0,0-.07,0m-27.43,0-.07,0a17.73,17.73,0,0,0-1.95,1,.18.18,0,0,0-.07.25.19.19,0,0,0,.16.09.16.16,0,0,0,.09,0,20,20,0,0,1,1.91-1,.18.18,0,0,0-.07-.35m31.14,2.18a.21.21,0,0,0-.15.07.19.19,0,0,0,0,.26,8.33,8.33,0,0,1,1.47,1.51.18.18,0,0,0,.15.07.2.2,0,0,0,.11,0,.19.19,0,0,0,0-.26,9.1,9.1,0,0,0-1.54-1.57.16.16,0,0,0-.11,0m-34.85,0a.19.19,0,0,0-.12,0,9.07,9.07,0,0,0-1.53,1.58.18.18,0,0,0,0,.25.15.15,0,0,0,.11,0,.23.23,0,0,0,.15-.07,8.33,8.33,0,0,1,1.47-1.51.18.18,0,0,0,0-.26.16.16,0,0,0-.14-.07" transform="translate(0 0)"/><path class="cls-3" d="M41.89,79h0a.2.2,0,0,0-.14.23,4.45,4.45,0,0,1,.12.73.36.36,0,0,1,.2-.06.47.47,0,0,1,.17,0,4.31,4.31,0,0,0-.13-.8.18.18,0,0,0-.18-.14" transform="translate(0 0)"/><path class="cls-3" d="M42,79.89a.34.34,0,0,0-.2.06c0,.1,0,.21,0,.31a.19.19,0,0,0,.19.18.18.18,0,0,0,.18-.18c0-.11,0-.22,0-.32a.34.34,0,0,0-.17,0" transform="translate(0 0)"/><path class="cls-3" d="M1.64,33.87V84.36a.37.37,0,1,0,.73,0V33.87a.37.37,0,1,0-.73,0" transform="translate(0 0)"/><path class="cls-3" d="M8.26,34.91V56.52a4,4,0,0,0,1.15,2.66,11.49,11.49,0,0,0,5,2.83A25.87,25.87,0,0,0,22,63.08a23.55,23.55,0,0,0,9.62-1.85,9.22,9.22,0,0,0,3-2,4,4,0,0,0,1.15-2.66V34.91H35V56.52a3.2,3.2,0,0,1-1,2.16,10.81,10.81,0,0,1-4.69,2.63,25.25,25.25,0,0,1-7.37,1,23,23,0,0,1-9.32-1.78A8.55,8.55,0,0,1,10,58.68a3.25,3.25,0,0,1-1-2.16V34.91" transform="translate(0 0)"/><path class="cls-3" d="M35.4,59.66H35V75.1a3.22,3.22,0,0,1-1,2.16,10.81,10.81,0,0,1-4.69,2.63,25.25,25.25,0,0,1-7.37,1,23,23,0,0,1-9.32-1.78A8.55,8.55,0,0,1,10,77.26,3.27,3.27,0,0,1,9,75.1V59.66H8.26a4,4,0,0,0,1.15,2.66,11.49,11.49,0,0,0,5,2.83A25.87,25.87,0,0,0,22,66.22a23.55,23.55,0,0,0,9.62-1.85,9.22,9.22,0,0,0,3-2.05,4,4,0,0,0,1.15-2.66H35a3.22,3.22,0,0,1-1,2.16,10.81,10.81,0,0,1-4.69,2.63,25.25,25.25,0,0,1-7.37,1,23,23,0,0,1-9.32-1.78A8.71,8.71,0,0,1,10,61.82a3.27,3.27,0,0,1-1-2.16H8.26V75.1a4,4,0,0,0,1.15,2.66,11.49,11.49,0,0,0,5,2.83A25.87,25.87,0,0,0,22,81.66a23.55,23.55,0,0,0,9.62-1.85,9.22,9.22,0,0,0,3-2,4,4,0,0,0,1.15-2.66V59.66H35.4Z" transform="translate(0 0)"/><path class="cls-3" d="M26.15,98.24h0a.37.37,0,0,0-.74,0h0a.37.37,0,1,0,.74,0" transform="translate(0 0)"/><path class="cls-3" d="M28.31,60.68h-.37V98.23h.74a.88.88,0,0,0-.17-.5,1.39,1.39,0,0,0-.62-.47,2.28,2.28,0,0,0-.84-.15,2.12,2.12,0,0,0-1.09.27,1.16,1.16,0,0,0-.38.35.88.88,0,0,0-.17.5h.74V61.18a3.64,3.64,0,0,0-3.64-3.64H21.42a3.63,3.63,0,0,0-3.63,3.64v42.36h.73a.89.89,0,0,0-.17-.51,1.37,1.37,0,0,0-.62-.46,2.28,2.28,0,0,0-.84-.16,2.13,2.13,0,0,0-1.09.28,1.24,1.24,0,0,0-.38.34.88.88,0,0,0-.16.51H16V60.68a5.07,5.07,0,0,1,5.07-5.07h1.81a5.07,5.07,0,0,1,5.07,5.07h.74a5.8,5.8,0,0,0-5.81-5.8H21.06a5.8,5.8,0,0,0-5.8,5.8v42.86H16a.13.13,0,0,1,0-.09.64.64,0,0,1,.3-.2,1.38,1.38,0,0,1,.57-.11,1.44,1.44,0,0,1,.7.17.46.46,0,0,1,.16.14.16.16,0,0,1,0,.09h.73V61.18a2.9,2.9,0,0,1,2.9-2.9h1.09a2.9,2.9,0,0,1,2.9,2.9V98.23h.74a.11.11,0,0,1,0-.08.64.64,0,0,1,.3-.21,1.57,1.57,0,0,1,.57-.1,1.36,1.36,0,0,1,.7.17.58.58,0,0,1,.16.14.11.11,0,0,1,0,.08h.74V60.68Z" transform="translate(0 0)"/><path class="cls-3" d="M28.68,98.24h0a.37.37,0,0,0-.74,0h0a.37.37,0,0,0,.74,0" transform="translate(0 0)"/><path class="cls-3" d="M18.15,103.54h-.36s0,0,0,.09a.65.65,0,0,1-.29.2,1.61,1.61,0,0,1-.57.1,1.31,1.31,0,0,1-.71-.17.45.45,0,0,1-.16-.13.15.15,0,0,1,0-.09.13.13,0,0,1,0-.09.64.64,0,0,1,.3-.2,1.38,1.38,0,0,1,.57-.11,1.44,1.44,0,0,1,.7.17.46.46,0,0,1,.16.14.16.16,0,0,1,0,.09h.73a.89.89,0,0,0-.17-.51,1.37,1.37,0,0,0-.62-.46,2.06,2.06,0,0,0-.84-.16,2.13,2.13,0,0,0-1.09.28,1.24,1.24,0,0,0-.38.34.88.88,0,0,0-.16.51.91.91,0,0,0,.16.51,1.37,1.37,0,0,0,.62.46,2.3,2.3,0,0,0,.85.16,2.09,2.09,0,0,0,1.08-.28,1.24,1.24,0,0,0,.38-.34.92.92,0,0,0,.17-.51Z" transform="translate(0 0)"/><path class="cls-3" d="M28.31,98.23h-.37a.12.12,0,0,1,0,.09.64.64,0,0,1-.3.21,1.56,1.56,0,0,1-.56.1,1.4,1.4,0,0,1-.71-.17.58.58,0,0,1-.16-.14.12.12,0,0,1,0-.09h0a.11.11,0,0,1,0-.08.64.64,0,0,1,.3-.21,1.57,1.57,0,0,1,.57-.1,1.36,1.36,0,0,1,.7.17.58.58,0,0,1,.16.14.11.11,0,0,1,0,.08h.74a.88.88,0,0,0-.17-.5,1.39,1.39,0,0,0-.62-.47,2.28,2.28,0,0,0-.84-.15,2.12,2.12,0,0,0-1.09.27,1.16,1.16,0,0,0-.38.35.88.88,0,0,0-.17.5h0a1,1,0,0,0,.17.51,1.43,1.43,0,0,0,.62.46,2.3,2.3,0,0,0,.85.15,2.11,2.11,0,0,0,1.08-.27,1.24,1.24,0,0,0,.38-.34.89.89,0,0,0,.17-.51h-.37Z" transform="translate(0 0)"/><g class="cls-4"><g class="cls-5"><path class="cls-6" d="M22.08,46.51a14.93,14.93,0,0,0-8.54,2.29,10.37,10.37,0,0,0-3.86,4.71,8.15,8.15,0,0,0-.62,2.91,3.18,3.18,0,0,0,1,2.16,8.71,8.71,0,0,0,2.75,1.89,22.9,22.9,0,0,0,9.31,1.78h0a25.32,25.32,0,0,0,7.38-1,10.81,10.81,0,0,0,4.69-2.63,3.21,3.21,0,0,0,1-2.16,7.39,7.39,0,0,0-.67-2.91,10.55,10.55,0,0,0-2.21-3.25c-2-2.07-5.28-3.74-10.14-3.75" transform="translate(0 0)"/></g></g><path class="cls-3" d="M22.07,45.78c-5.21,0-8.66,1.75-10.79,4A11,11,0,0,0,9,53.23a8.73,8.73,0,0,0-.67,3.19h.73a8.15,8.15,0,0,1,.62-2.91,10.37,10.37,0,0,1,3.86-4.71,14.93,14.93,0,0,1,8.54-2.29c4.86,0,8.1,1.68,10.14,3.75a10.37,10.37,0,0,1,2.21,3.25,7.6,7.6,0,0,1,.68,2.91h.73a8.34,8.34,0,0,0-.73-3.2,11.74,11.74,0,0,0-4.24-5,15.44,15.44,0,0,0-8.78-2.41h0" transform="translate(0 0)"/><path class="cls-6" d="M35.1,58.56a4.92,4.92,0,0,1-.41.52,9.31,9.31,0,0,1-3,2.05A23.48,23.48,0,0,1,22.08,63a25.51,25.51,0,0,1-7.59-1.08,11.38,11.38,0,0,1-5-2.82c-.15-.17-.29-.34-.42-.52v1a3.2,3.2,0,0,0,1,2.16,8.54,8.54,0,0,0,2.75,1.88,22.73,22.73,0,0,0,9.31,1.78h0a25,25,0,0,0,7.38-1,10.71,10.71,0,0,0,4.69-2.62,3.23,3.23,0,0,0,1-2.16Z" transform="translate(0 0)"/><path class="cls-3" d="M35.84,56.42h0a3.76,3.76,0,0,1-.73,2.15v1a3.27,3.27,0,0,1-1,2.16,10.71,10.71,0,0,1-4.69,2.62,25,25,0,0,1-7.38,1h0a22.73,22.73,0,0,1-9.31-1.79A8.54,8.54,0,0,1,10,61.72a3.22,3.22,0,0,1-1-2.16v-1a3.76,3.76,0,0,1-.73-2.15v3.14a3.93,3.93,0,0,0,1.15,2.65,11.3,11.3,0,0,0,5,2.83,25.84,25.84,0,0,0,7.59,1.08,23.48,23.48,0,0,0,9.62-1.85,9.33,9.33,0,0,0,3-2.06,3.93,3.93,0,0,0,1.15-2.65Z" transform="translate(0 0)"/><path class="cls-3" d="M35.84,56.42h0Zm-.74,0h0Zm.74,0H35.1a3.21,3.21,0,0,1-1,2.16,10.81,10.81,0,0,1-4.69,2.63,25.32,25.32,0,0,1-7.38,1h0a22.9,22.9,0,0,1-9.31-1.78A8.71,8.71,0,0,1,10,58.58a3.22,3.22,0,0,1-1-2.16H8.33a3.76,3.76,0,0,0,.73,2.15q.19.26.42.51a11.49,11.49,0,0,0,5,2.83A25.85,25.85,0,0,0,22.08,63a23.48,23.48,0,0,0,9.62-1.85,9.16,9.16,0,0,0,3-2.05,6.11,6.11,0,0,0,.41-.51,3.7,3.7,0,0,0,.74-2.15m-.37,0h0Z" transform="translate(0 0)"/></g><polygon class="cls-3" points="35.4 38.23 35.04 38.23 35.77 38.23 35.4 38.23"/><g class="cls-2"><path class="cls-3" d="M30.59,9.11v2.23a.28.28,0,0,0,.28.27.27.27,0,0,0,.28-.27V9.11a.27.27,0,0,0-.28-.27.28.28,0,0,0-.28.27m0,4.45v2.22a.29.29,0,0,0,.28.28.28.28,0,0,0,.28-.28V13.56a.27.27,0,0,0-.28-.28.28.28,0,0,0-.28.28m0,4.44v2.23a.28.28,0,0,0,.28.27.27.27,0,0,0,.28-.27V18a.27.27,0,0,0-.28-.27.28.28,0,0,0-.28.27m0,4.45v1.86h.28l.08-.26-.34-.1a.29.29,0,0,0-.35.19.28.28,0,0,0,.2.34l.33.1.36.11V22.45a.27.27,0,0,0-.28-.28.28.28,0,0,0-.28.28m-2.17,1c-.71-.13-1.45-.23-2.22-.32a.29.29,0,0,0-.31.25.27.27,0,0,0,.25.3c.75.09,1.48.19,2.18.32a.27.27,0,0,0,.32-.22A.28.28,0,0,0,28.42,23.44ZM24,23c-.55,0-1.11,0-1.68,0h-.55a.28.28,0,0,0-.28.28.27.27,0,0,0,.28.27h.55c.56,0,1.12,0,1.66,0a.29.29,0,0,0,.29-.27A.28.28,0,0,0,24,23M19.49,23c-.77.06-1.51.14-2.23.24a.28.28,0,0,0-.24.32.29.29,0,0,0,.32.23q1.05-.15,2.19-.24a.28.28,0,0,0,.26-.3A.29.29,0,0,0,19.49,23Zm-4.44.65a21.52,21.52,0,0,0-2.16.61.28.28,0,0,0-.18.36.29.29,0,0,0,.36.17,17.71,17.71,0,0,1,2.11-.6.28.28,0,0,0,.21-.33.29.29,0,0,0-.34-.21m-4.24,1.52A5.56,5.56,0,0,0,9,26.66a.28.28,0,1,0,.44.33,5.17,5.17,0,0,1,1.63-1.31.28.28,0,0,0,.1-.38.27.27,0,0,0-.37-.11" transform="translate(0 0)"/><path class="cls-6" d="M8.38,25.31a2.35,2.35,0,0,0,.33,1.17,4.82,4.82,0,0,0,1.81,1.7,16.15,16.15,0,0,0,5,1.77,33.76,33.76,0,0,0,6.81.66,32.93,32.93,0,0,0,7.38-.79.37.37,0,0,0,.28-.44.38.38,0,0,0-.45-.28,31.88,31.88,0,0,1-7.21.77,28.75,28.75,0,0,1-9.44-1.42A9.14,9.14,0,0,1,10.06,27a3.46,3.46,0,0,1-.71-.83,1.66,1.66,0,0,1-.23-.81.36.36,0,0,0-.37-.37.37.37,0,0,0-.37.37" transform="translate(0 0)"/><path class="cls-6" d="M8.38,20.57a2.39,2.39,0,0,0,.33,1.18,5,5,0,0,0,1.81,1.7,16.69,16.69,0,0,0,5,1.77,33.76,33.76,0,0,0,6.81.66,34,34,0,0,0,6-.51h.14a.8.8,0,0,1,.78.79.79.79,0,0,1-.64.78,32.8,32.8,0,0,1-6.29.57,28.75,28.75,0,0,1-9.44-1.42,8.93,8.93,0,0,1-2.78-1.5,3.12,3.12,0,0,1-.71-.83,1.66,1.66,0,0,1-.23-.81.37.37,0,0,0-.37-.37.38.38,0,0,0-.37.37,2.39,2.39,0,0,0,.33,1.18,5,5,0,0,0,1.81,1.7,16.42,16.42,0,0,0,5,1.76,33.76,33.76,0,0,0,6.81.66,34.37,34.37,0,0,0,6.43-.58,1.53,1.53,0,0,0-.28-3l-.27,0a33.4,33.4,0,0,1-5.88.5,28.75,28.75,0,0,1-9.44-1.42,9.14,9.14,0,0,1-2.78-1.51,3.25,3.25,0,0,1-.71-.82,1.7,1.7,0,0,1-.23-.82.37.37,0,0,0-.37-.37.38.38,0,0,0-.37.37" transform="translate(0 0)"/><path class="cls-6" d="M8.38,11.11a2.39,2.39,0,0,0,.33,1.18A5,5,0,0,0,10.52,14a16.42,16.42,0,0,0,5,1.76,33.76,33.76,0,0,0,6.81.66,35,35,0,0,0,6-.5h.14a.74.74,0,0,1,.54.23.76.76,0,0,1,.24.56.79.79,0,0,1-.64.78,33.62,33.62,0,0,1-6.29.57,28.75,28.75,0,0,1-9.44-1.42,9.36,9.36,0,0,1-2.78-1.5,3.46,3.46,0,0,1-.71-.83,1.69,1.69,0,0,1-.23-.81.36.36,0,0,0-.37-.37.37.37,0,0,0-.37.37,2.35,2.35,0,0,0,.33,1.17,4.82,4.82,0,0,0,1.81,1.7,16.41,16.41,0,0,0,5,1.77,33.76,33.76,0,0,0,6.81.66,34.37,34.37,0,0,0,6.43-.58,1.54,1.54,0,0,0-.28-3l-.27,0a34.43,34.43,0,0,1-5.88.49,28.75,28.75,0,0,1-9.44-1.42,8.93,8.93,0,0,1-2.78-1.5,3.12,3.12,0,0,1-.71-.83,1.66,1.66,0,0,1-.23-.81.36.36,0,0,0-.37-.37.37.37,0,0,0-.37.37" transform="translate(0 0)"/><g class="cls-7"><g class="cls-8"><path class="cls-6" d="M22.28,3.44a32.59,32.59,0,0,0-7.89.91A11.48,11.48,0,0,0,9.34,6.76a.37.37,0,0,0,.26.63.37.37,0,0,0,.26-.1,10.86,10.86,0,0,1,4.71-2.22,31.48,31.48,0,0,1,7.71-.89,33.53,33.53,0,0,1,4.95.35.79.79,0,0,1,.68.78v0a.79.79,0,0,1-.23.56.83.83,0,0,1-.56.23H27a35.24,35.24,0,0,0-4.72-.3,26.45,26.45,0,0,0-11.1,2.06.37.37,0,0,0,.16.71.47.47,0,0,0,.17,0c2.37-1.19,6.31-2,10.75-2h0a33.88,33.88,0,0,1,4.63.3h.21a1.57,1.57,0,0,0,1.08-.44,1.53,1.53,0,0,0,.45-1.09v0a1.53,1.53,0,0,0-1.31-1.52,35.07,35.07,0,0,0-5.06-.35" transform="translate(0 0)"/></g></g><path class="cls-6" d="M8.38,8.74a2.39,2.39,0,0,0,.33,1.18,5,5,0,0,0,1.81,1.7,16.69,16.69,0,0,0,5,1.77,33.76,33.76,0,0,0,6.81.66,32.93,32.93,0,0,0,7.38-.79.38.38,0,0,0,.28-.45.38.38,0,0,0-.45-.27,32.46,32.46,0,0,1-7.21.77,28.46,28.46,0,0,1-9.44-1.43,8.93,8.93,0,0,1-2.78-1.5,3.25,3.25,0,0,1-.71-.82,1.73,1.73,0,0,1-.23-.82.37.37,0,0,0-.37-.37.38.38,0,0,0-.37.37" transform="translate(0 0)"/><path class="cls-3" d="M33.36,30.54a16.93,16.93,0,0,1-4.68,1.56,33.76,33.76,0,0,1-6.4.59,28.75,28.75,0,0,1-9.44-1.42,9.36,9.36,0,0,1-2.78-1.5,3.46,3.46,0,0,1-.71-.83,1.69,1.69,0,0,1-.23-.81.36.36,0,0,0-.37-.37.37.37,0,0,0-.37.37,2.35,2.35,0,0,0,.33,1.17A4.9,4.9,0,0,0,10.52,31a16.41,16.41,0,0,0,5,1.77,33.76,33.76,0,0,0,6.81.66,33.78,33.78,0,0,0,6.55-.61,17.52,17.52,0,0,0,4.88-1.63.37.37,0,0,0-.35-.65" transform="translate(0 0)"/><path class="cls-3" d="M33.16,8V30.86a.37.37,0,0,0,.37.37.36.36,0,0,0,.37-.37V8a.37.37,0,0,0-.37-.37.38.38,0,0,0-.37.37" transform="translate(0 0)"/><path class="cls-3" d="M30.5,1.49V9.11a.37.37,0,0,0,.37.37.36.36,0,0,0,.37-.37V1.49a.37.37,0,0,0-.37-.37.38.38,0,0,0-.37.37" transform="translate(0 0)"/><path class="cls-6" d="M8.38,15.84A2.39,2.39,0,0,0,8.71,17a5,5,0,0,0,1.81,1.7,16.69,16.69,0,0,0,5,1.77,33.76,33.76,0,0,0,6.81.66,34,34,0,0,0,6-.51h.14a.73.73,0,0,1,.54.23.76.76,0,0,1,.24.56.79.79,0,0,1-.64.78,33.62,33.62,0,0,1-6.29.57,28.75,28.75,0,0,1-9.44-1.42,9.14,9.14,0,0,1-2.78-1.5A3.12,3.12,0,0,1,9.35,19a1.66,1.66,0,0,1-.23-.81.36.36,0,0,0-.37-.37.37.37,0,0,0-.37.37,2.32,2.32,0,0,0,.33,1.17,4.82,4.82,0,0,0,1.81,1.7,16.15,16.15,0,0,0,5,1.77,33.76,33.76,0,0,0,6.81.66,34.37,34.37,0,0,0,6.43-.58,1.53,1.53,0,0,0-.28-3l-.27,0a33.4,33.4,0,0,1-5.88.5A28.46,28.46,0,0,1,12.84,19a8.93,8.93,0,0,1-2.78-1.5,3.25,3.25,0,0,1-.71-.82,1.73,1.73,0,0,1-.23-.82.37.37,0,0,0-.37-.37.38.38,0,0,0-.37.37" transform="translate(0 0)"/><path class="cls-3" d="M8.38,5.3V28.13a.38.38,0,0,0,.37.37.37.37,0,0,0,.37-.37V5.3a.37.37,0,0,0-.37-.37.38.38,0,0,0-.37.37" transform="translate(0 0)"/><path class="cls-3" d="M33.36,7.72a17,17,0,0,1-4.68,1.55,32.92,32.92,0,0,1-6.4.6,28.46,28.46,0,0,1-9.44-1.43,8.93,8.93,0,0,1-2.78-1.5,3.25,3.25,0,0,1-.71-.82,1.7,1.7,0,0,1-.23-.82,1.69,1.69,0,0,1,.23-.81A4.36,4.36,0,0,1,10.9,3.06a15.86,15.86,0,0,1,4.72-1.67A32.91,32.91,0,0,1,22.28.74a30.36,30.36,0,0,1,8.49,1.11A.37.37,0,0,0,31,1.14,30.8,30.8,0,0,0,22.28,0a29.1,29.1,0,0,0-9.69,1.47,9.81,9.81,0,0,0-3,1.63,3.9,3.9,0,0,0-.86,1A2.35,2.35,0,0,0,8.38,5.3a2.39,2.39,0,0,0,.33,1.18,5,5,0,0,0,1.81,1.7,16.69,16.69,0,0,0,5,1.77,33.76,33.76,0,0,0,6.81.66A33.78,33.78,0,0,0,28.83,10a17.85,17.85,0,0,0,4.88-1.63.37.37,0,0,0-.35-.65" transform="translate(0 0)"/></g><rect class="cls-6" x="29.7" y="12.53" width="10.96" height="0.74"/><rect class="cls-6" x="29.7" y="29.09" width="10.96" height="0.74"/><polygon class="cls-6" points="37.95 27.51 40.66 27.51 40.66 29.09 36.84 29.09 37.95 27.51"/><polygon class="cls-6" points="36.84 13.17 40.66 13.17 40.66 14.76 37.95 14.76 36.84 13.17"/><g class="cls-2"><line class="cls-9" x1="1.64" y1="6.01" x2="1.64" y2="21.03"/><path class="cls-6" d="M1.64,25.71l1.64-4.5a16.27,16.27,0,0,0-3.28,0Z" transform="translate(0 0)"/></g></g></g></g></svg>