<svg xmlns="http://www.w3.org/2000/svg" xmlns:xlink="http://www.w3.org/1999/xlink" viewBox="0 0 36.19 46.29"><defs><style>.cls-1,.cls-6,.cls-7,.cls-8{fill:none;}.cls-2{clip-path:url(#clip-path);}.cls-3{opacity:0.5;}.cls-4{clip-path:url(#clip-path-3);}.cls-5{fill:#c4da00;}.cls-6,.cls-7,.cls-8{stroke:#c4da00;}.cls-6{stroke-width:1.03px;}.cls-7{stroke-width:0.41px;}.cls-8{stroke-width:0.8px;}</style><clipPath id="clip-path" transform="translate(0 0)"><rect class="cls-1" width="36.19" height="46.29"/></clipPath><clipPath id="clip-path-3" transform="translate(0 0)"><rect class="cls-1" x="-0.48" y="9.3" width="39.83" height="24.65"/></clipPath></defs><g id="图层_2" data-name="图层 2"><g id="图层_1-2" data-name="图层 1"><g class="cls-2"><g class="cls-2"><g class="cls-3"><g class="cls-4"><path class="cls-5" d="M19.43,33c6,0,10.92-3.73,10.92-8.32S25.46,16.3,19.43,16.3,8.52,20,8.52,24.63,13.4,33,19.43,33" transform="translate(0 0)"/></g></g><path class="cls-6" d="M17.73,31.71c6,0,10.92-3.73,10.92-8.33s-4.89-8.32-10.92-8.32S6.82,18.79,6.82,23.38,11.7,31.71,17.73,31.71Z" transform="translate(0 0)"/><line class="cls-6" x1="1.94" y1="14.03" x2="33.53" y2="14.03"/></g><line class="cls-7" x1="2.81" y1="13.63" x2="6.39" y2="10.05"/><g class="cls-2"><line class="cls-7" x1="0.15" y1="36.25" x2="3.73" y2="32.66"/></g><line class="cls-7" x1="15.52" y1="13.63" x2="19.1" y2="10.05"/><line class="cls-7" x1="12.86" y1="36.25" x2="16.44" y2="32.66"/><line class="cls-7" x1="28.23" y1="13.63" x2="31.81" y2="10.05"/><line class="cls-7" x1="25.57" y1="36.25" x2="29.15" y2="32.66"/><line class="cls-7" x1="7.05" y1="13.63" x2="10.63" y2="10.05"/><line class="cls-7" x1="4.38" y1="36.25" x2="7.96" y2="32.66"/><line class="cls-7" x1="19.76" y1="13.63" x2="23.34" y2="10.05"/><line class="cls-7" x1="17.09" y1="36.25" x2="20.67" y2="32.66"/><line class="cls-7" x1="32.47" y1="13.63" x2="36.05" y2="10.05"/><line class="cls-7" x1="29.8" y1="36.25" x2="33.38" y2="32.66"/><line class="cls-7" x1="11.28" y1="13.63" x2="14.86" y2="10.05"/><line class="cls-7" x1="8.62" y1="36.25" x2="12.2" y2="32.66"/><line class="cls-7" x1="23.99" y1="13.63" x2="27.57" y2="10.05"/><line class="cls-7" x1="21.33" y1="36.25" x2="24.91" y2="32.66"/><g class="cls-2"><line class="cls-6" x1="1.94" y1="32.73" x2="33.53" y2="32.73"/><line class="cls-8" x1="18.1" x2="18.1" y2="5.55"/><path class="cls-5" d="M18.1,9.9l2.17-6a3.74,3.74,0,0,1-4.35,0Z" transform="translate(0 0)"/><line class="cls-8" x1="18.1" y1="46.29" x2="18.1" y2="40.74"/><path class="cls-5" d="M18.1,36.39l-2.18,6a3.74,3.74,0,0,1,4.35,0Z" transform="translate(0 0)"/></g></g></g></g></svg>