<svg xmlns="http://www.w3.org/2000/svg" xmlns:xlink="http://www.w3.org/1999/xlink" viewBox="0 0 30.36 30.36"><defs><style>.cls-1,.cls-6,.cls-7{fill:none;}.cls-2{clip-path:url(#clip-path);}.cls-3{opacity:0.5;}.cls-4{clip-path:url(#clip-path-3);}.cls-5{fill:#c4da00;}.cls-6,.cls-7{stroke:#c4da00;}.cls-7{stroke-dasharray:3.18 3.18;}</style><clipPath id="clip-path" transform="translate(0 0)"><rect class="cls-1" width="30.36" height="30.36"/></clipPath><clipPath id="clip-path-3" transform="translate(0 0)"><rect class="cls-1" x="-6.37" y="-4.37" width="45.74" height="35.74"/></clipPath></defs><g id="图层_2" data-name="图层 2"><g id="图层_1-2" data-name="图层 1"><g class="cls-2"><g class="cls-2"><g class="cls-3"><g class="cls-4"><path class="cls-5" d="M16.49,30.36A13.87,13.87,0,1,0,2.63,16.49,13.87,13.87,0,0,0,16.49,30.36" transform="translate(0 0)"/></g></g></g><line class="cls-6" x1="14.37" y1="10.91" x2="14.37" y2="5.83"/><g class="cls-2"><path class="cls-5" d="M14.37,1.4l-2.2,6.05a3.82,3.82,0,0,1,4.4,0Z" transform="translate(0 0)"/><path class="cls-7" d="M18.86,26.87a8.12,8.12,0,0,0,3-3.63" transform="translate(0 0)"/><path class="cls-7" d="M21.1,15.65a8.23,8.23,0,0,0-3.63-3" transform="translate(0 0)"/><path class="cls-7" d="M9.87,13.41a8.18,8.18,0,0,0-3,3.64" transform="translate(0 0)"/><path class="cls-7" d="M7.64,24.64a8,8,0,0,0,3.63,3" transform="translate(0 0)"/><path class="cls-6" d="M12.79,28.08a7.88,7.88,0,0,0,3.16,0M6.43,18.56a8.4,8.4,0,0,0,0,3.16M16,12.2a8.4,8.4,0,0,0-3.16,0m9.52,9.52a8.4,8.4,0,0,0,0-3.16" transform="translate(0 0)"/><circle class="cls-6" cx="14.37" cy="14.37" r="13.87"/></g></g></g></g></svg>