<svg xmlns="http://www.w3.org/2000/svg" viewBox="0 0 372.38 968.51">
    <defs>
        <style>.cls-2,.cls-3,.cls-4,.cls-6{fill:#fff;}.cls-2,.cls-5,.cls-8{stroke:#fff;stroke-miterlimit:10;stroke-width:2px;}.cls-2,.cls-5,.cls-7{opacity:0.7;}.cls-3{opacity:0;}.cls-5,.cls-8{fill:none;}.cls-5{stroke-dasharray:4.89
            3.38;}.cls-6{font-size:23.48px;font-family:ZCOOLXiaoWei-Regular, ZCOOL
            XiaoWei;letter-spacing:-0.01em;}.cls-9{fill:#fff;}</style>
    </defs>
    <g id="图层_2" data-name="图层 2">
        <g id="图层_1-2" data-name="图层 1">
            <circle id="lightBulbIndicateCircle" cx="139.67" cy="887.58" r="0" style="opacity: 0" />
            <line class="cls-2" x1="31.09" y1="856.24" x2="31.09" />
            
            <g id="Ms0iNQ.tif">
                <path class="cls-4"
                    d="M31.06,880.1c4.23,0,8.45,0,12.67,0,1.42,0,2.49.38,2.65,1.95.83,8.07,5.11,14.63,9.35,21.15,4.13,6.35,6.91,13.07,6.38,20.75-.88,12.63-8.18,23.06-20.4,27.42-15.37,5.48-31.36-1-38.43-15.46-5-10.17-4.18-20.37,1.65-30.16C8,900.56,11.09,895.35,13.82,890a23.3,23.3,0,0,0,1.93-7.39c.26-2,1.13-2.54,2.9-2.52,4.14,0,8.27,0,12.41,0Z" />
                <path class="cls-4"
                    d="M31.07,870.18H42.73c2,0,3.54.65,3.5,2.9s-1.51,3-3.51,3H19.65c-1.94,0-3.48-.62-3.66-2.83-.15-1.89,1.18-3,3.67-3C23.47,870.14,27.27,870.18,31.07,870.18Z" />
                <path class="cls-4"
                    d="M31.13,866H19.46c-1.89,0-3.29-.63-3.45-2.73s1.42-3,3.16-3c8-.09,16.06-.1,24.09,0,1.61,0,3.16.87,3,2.92-.14,1.89-1.39,2.72-3.22,2.73H31.13Z" />
                <path class="cls-4"
                    d="M31,856.18c-2.3,0-4.61,0-6.91,0-.51,0-1.3-.2-1.44-.53a2,2,0,0,1,.44-1.51,10,10,0,0,1,16.07,0,2,2,0,0,1,.43,1.51c-.14.34-.92.54-1.42.55-2.39.06-4.78,0-7.17,0Z" />
            </g>
            <g id="handPullGroup">
                <line class="cls-5" x1="139.64" y1="876.04" x2="139.64" />
                <path class="cls-4"
                    d="M148.69,870.07c0,4.87-2,6-2,11.64a51.29,51.29,0,0,0,2,14.38H130.05a52.06,52.06,0,0,0,2-14.46c0-5.59-2-6.9-2-11.56a5.9,5.9,0,0,1,5.9-5.9h6.83A5.9,5.9,0,0,1,148.69,870.07Z" />
                <path class="cls-4"
                    d="M148.69,903.93v1.18a7.6,7.6,0,0,1-7.91,7.19H138c-4.61,0-7.9-3.94-7.9-7.19v-1.18Z" />
                <rect class="cls-4" x="130.05" y="898.76" width="18.64" height="2.51" />

            </g>
            <text class="cls-6" transform="translate(207.47 887.58)">pull to light it up!</text>
            <g class="cls-7">
                <line class="cls-4" x1="188.78" y1="852.07" x2="188.78" y2="910.11" />
                <line class="cls-8" x1="188.78" y1="852.07" x2="188.78" y2="895.99" />
                <polygon class="cls-9"
                    points="188.78 910.11 180.65 890.22 188.78 894.94 196.91 890.22 188.78 910.11" />
            </g>
            <rect id="lightBulbInteractRect" class="cls-3" x="99.29" y="784.85" width="80.76"
                height="183.66" />
        </g>
    </g>
</svg>