<svg width="144" height="155" viewBox="0 0 144 155" fill="none" xmlns="http://www.w3.org/2000/svg">
<path d="M142.019 114.75C143.454 115.578 143.95 117.417 143.067 118.819C136.437 129.34 127.363 138.124 116.601 144.413C104.974 151.207 91.7774 154.855 78.3116 154.996C64.8458 155.137 51.5757 151.767 39.809 145.217C28.0424 138.668 18.1853 129.166 11.2093 117.647C4.23328 106.128 0.379097 92.9906 0.0265828 79.5287C-0.325931 66.0669 2.8354 52.7454 9.199 40.8774C15.5626 29.0093 24.9089 19.0042 36.3166 11.8481C46.8762 5.22407 58.8648 1.2528 71.2603 0.251613C72.9118 0.118223 74.3109 1.40997 74.3803 3.06538L75.6727 33.901C75.7421 35.5564 74.454 36.9431 72.8082 37.1344C66.8146 37.8311 61.0381 39.8555 55.9054 43.0752C49.9237 46.8276 45.023 52.0738 41.6862 58.2968C38.3494 64.5199 36.6918 71.505 36.8766 78.5638C37.0615 85.6226 39.0824 92.5114 42.7403 98.5513C46.3982 104.591 51.5668 109.574 57.7367 113.008C63.9065 116.442 70.8648 118.209 77.9256 118.135C84.9864 118.061 91.9061 116.149 98.0027 112.586C103.234 109.529 107.704 105.348 111.098 100.359C112.03 98.9893 113.856 98.4903 115.291 99.3187L142.019 114.75Z" fill="white"/>
</svg>
