<svg xmlns="http://www.w3.org/2000/svg" xmlns:xlink="http://www.w3.org/1999/xlink" viewBox="0 0 10.4 16.68"><defs><style>.cls-1,.cls-5{fill:none;}.cls-2{fill:#303030;}.cls-3{clip-path:url(#clip-path);}.cls-4{fill:#fff;}.cls-5{stroke:#303030;stroke-linejoin:round;stroke-width:0.67px;}</style><clipPath id="clip-path" transform="translate(0 0)"><rect class="cls-1" width="10.4" height="16.68"/></clipPath></defs><g id="图层_2" data-name="图层 2"><g id="图层_1-2" data-name="图层 1"><polygon class="cls-2" points="0.41 6.73 1.89 8.78 1.86 4.93 0.41 6.73"/><g class="cls-3"><path class="cls-2" d="M6.51,12.55c.68-.11,1-.39,1-.84a.74.74,0,0,0-.21-.55,2,2,0,0,0-.8-.4Zm-1.62-7c-.65.06-1,.31-1,.74a.75.75,0,0,0,.22.56,2.11,2.11,0,0,0,.76.39Zm0,9.64a9.88,9.88,0,0,1-2-.23,8.76,8.76,0,0,1-1.57-.52V11.68a9.81,9.81,0,0,0,1.78.61,12.48,12.48,0,0,0,1.76.3V10.34a11.55,11.55,0,0,1-2-.78,3.79,3.79,0,0,1-1.36-1.2,3.36,3.36,0,0,1-.49-1.91A3,3,0,0,1,2.12,4,5,5,0,0,1,4.89,3V1.74H6.51V3a10.35,10.35,0,0,1,2,.29,12.24,12.24,0,0,1,1.59.55L9.31,6.27A9.22,9.22,0,0,0,7.94,5.8a12.19,12.19,0,0,0-1.43-.24V7.77a13.37,13.37,0,0,1,2.11.81,3.38,3.38,0,0,1,1.32,1.1,3,3,0,0,1,.46,1.74,3.61,3.61,0,0,1-.93,2.51,4.48,4.48,0,0,1-3,1.25v1.5H4.89Z" transform="translate(0 0)"/></g><polygon class="cls-2" points="0.33 12.77 1.35 14.47 1.86 11.96 0.33 12.77"/><g class="cls-3"><path class="cls-4" d="M5.47,10.77c.63-.11,1-.38,1-.81a.77.77,0,0,0-.2-.54A2.13,2.13,0,0,0,5.47,9ZM3.93,4c-.61,0-.91.3-.91.72a.73.73,0,0,0,.21.54,2,2,0,0,0,.7.38Zm0,9.3a8.85,8.85,0,0,1-1.85-.22,8.05,8.05,0,0,1-1.48-.5V9.92a8.13,8.13,0,0,0,1.68.59,11.15,11.15,0,0,0,1.65.3V8.64a10.82,10.82,0,0,1-1.85-.76A3.42,3.42,0,0,1,.8,6.72,3.3,3.3,0,0,1,.33,4.88a2.87,2.87,0,0,1,1-2.4,4.54,4.54,0,0,1,2.6-.93V.33H5.47v1.2a9.22,9.22,0,0,1,1.85.28,11.87,11.87,0,0,1,1.5.53L8.1,4.71a7,7,0,0,0-1.29-.45A9.21,9.21,0,0,0,5.47,4V6.15a12.92,12.92,0,0,1,2,.79A3.11,3.11,0,0,1,8.7,8a3,3,0,0,1,.44,1.69,3.51,3.51,0,0,1-.89,2.42,4.22,4.22,0,0,1-2.78,1.21v1.44H3.93Z" transform="translate(0 0)"/><path class="cls-5" d="M5.47,10.77c.63-.11,1-.38,1-.81a.77.77,0,0,0-.2-.54A2.13,2.13,0,0,0,5.47,9ZM3.93,4c-.61,0-.91.3-.91.72a.73.73,0,0,0,.21.54,2,2,0,0,0,.7.38Zm0,9.3a8.85,8.85,0,0,1-1.85-.22,8.05,8.05,0,0,1-1.48-.5V9.92a8.13,8.13,0,0,0,1.68.59,11.15,11.15,0,0,0,1.65.3V8.64a10.82,10.82,0,0,1-1.85-.76A3.42,3.42,0,0,1,.8,6.72,3.3,3.3,0,0,1,.33,4.88a2.87,2.87,0,0,1,1-2.4,4.54,4.54,0,0,1,2.6-.93V.33H5.47v1.2a9.22,9.22,0,0,1,1.85.28,11.87,11.87,0,0,1,1.5.53L8.1,4.71a7,7,0,0,0-1.29-.45A9.21,9.21,0,0,0,5.47,4V6.15a12.92,12.92,0,0,1,2,.79A3.11,3.11,0,0,1,8.7,8a3,3,0,0,1,.44,1.69,3.51,3.51,0,0,1-.89,2.42,4.22,4.22,0,0,1-2.78,1.21v1.44H3.93Z" transform="translate(0 0)"/></g><polygon class="cls-2" points="8.71 3.52 10.07 3.82 9.09 2.19 8.71 3.52"/><polygon class="cls-2" points="9.27 10.62 10.17 10.1 9.09 8 9.27 10.62"/><polygon class="cls-2" points="4.89 16.68 5.21 15.04 2.96 14.52 4.89 16.68"/></g></g></svg>