<svg xmlns="http://www.w3.org/2000/svg" xmlns:xlink="http://www.w3.org/1999/xlink" viewBox="0 0 16.3 13.07"><defs><style>.cls-1,.cls-3,.cls-5{fill:none;}.cls-2{clip-path:url(#clip-path);}.cls-3{stroke:#fff;}.cls-3,.cls-5{stroke-linejoin:round;}.cls-4{fill:#fff;}.cls-5{stroke:#303030;}</style><clipPath id="clip-path" transform="translate(0 0)"><rect class="cls-1" width="16.3" height="13.07"/></clipPath></defs><g id="图层_2" data-name="图层 2"><g id="图层_1-2" data-name="图层 1"><g class="cls-2"><line class="cls-3" y1="1.82" x2="16.3" y2="1.82"/><line class="cls-3" y1="6.54" x2="16.3" y2="6.54"/><line class="cls-3" y1="11.25" x2="16.3" y2="11.25"/><path class="cls-4" d="M9.64,3.13a1.28,1.28,0,0,0,1.25-1.31,1.26,1.26,0,1,0-2.51,0A1.29,1.29,0,0,0,9.64,3.13" transform="translate(0 0)"/><ellipse class="cls-5" cx="9.64" cy="1.82" rx="1.26" ry="1.32"/><path class="cls-4" d="M4.68,7.85a1.32,1.32,0,0,0,0-2.63,1.32,1.32,0,0,0,0,2.63" transform="translate(0 0)"/><ellipse class="cls-5" cx="4.68" cy="6.54" rx="1.26" ry="1.32"/><path class="cls-4" d="M11.76,12.57a1.32,1.32,0,1,0-1.25-1.32,1.29,1.29,0,0,0,1.25,1.32" transform="translate(0 0)"/><ellipse class="cls-5" cx="11.76" cy="11.25" rx="1.26" ry="1.32"/></g></g></g></svg>