<svg xmlns="http://www.w3.org/2000/svg" xmlns:xlink="http://www.w3.org/1999/xlink" viewBox="0 0 17.73 19.25"><defs><style>.cls-1,.cls-5{fill:none;}.cls-2{clip-path:url(#clip-path);}.cls-3{fill:#303030;}.cls-4{fill:#fff;}.cls-5{stroke:#303030;stroke-linejoin:round;stroke-width:0.67px;}</style><clipPath id="clip-path" transform="translate(0.04 0.04)"><rect class="cls-1" width="17.69" height="19.21"/></clipPath></defs><g id="图层_2" data-name="图层 2"><g id="图层_1-2" data-name="图层 1"><g class="cls-2"><path class="cls-3" d="M17.69,6.5A2.54,2.54,0,0,1,16.41,9L10.29,12h0l-.15.07a2,2,0,0,1-1.49,0A7.63,7.63,0,0,0,8.26,15s3.37-.41,3.58,1.38c.38,3.21-10.27,3.9-10.4.81C1.35,15.11,4.16,15,4.16,15a9.45,9.45,0,0,1,2.55-4.54h0a5.57,5.57,0,0,1-.48-.87c-.84-1.95-.47-4,.83-4.56l6.1-3,.18-.09c1.3-.57,3.05.55,3.9,2.5a5.17,5.17,0,0,1,.45,2.08" transform="translate(0.04 0.04)"/><path class="cls-4" d="M8.93,10.51,15.14,7.4h0c1.3-.56,1.67-2.57.83-4.5S13.4-.12,12.1.44l-.17.08-6,3" transform="translate(0.04 0.04)"/><path class="cls-5" d="M8.93,10.51,15.14,7.4h0c1.3-.56,1.67-2.57.83-4.5S13.4-.12,12.1.44l-.17.08-6,3" transform="translate(0.04 0.04)"/><path class="cls-4" d="M5.55,8.91a4.73,4.73,0,0,1-.47-.86c-.83-1.91-.46-3.91.81-4.47S8.87,4.12,9.7,6s.47,3.91-.81,4.46a1.91,1.91,0,0,1-1.45,0" transform="translate(0.04 0.04)"/><path class="cls-5" d="M5.55,8.91a4.73,4.73,0,0,1-.47-.86c-.83-1.91-.46-3.91.81-4.47S8.87,4.12,9.7,6s.47,3.91-.81,4.46a1.91,1.91,0,0,1-1.45,0" transform="translate(0.04 0.04)"/><path class="cls-4" d="M5.55,8.91a4.73,4.73,0,0,1-.47-.86c-.83-1.91-.46-3.91.81-4.47S8.87,4.12,9.7,6s.47,3.91-.81,4.46a1.91,1.91,0,0,1-1.45,0" transform="translate(0.04 0.04)"/><path class="cls-5" d="M5.55,8.91a4.73,4.73,0,0,1-.47-.86c-.83-1.91-.46-3.91.81-4.47S8.87,4.12,9.7,6s.47,3.91-.81,4.46a1.91,1.91,0,0,1-1.45,0" transform="translate(0.04 0.04)"/><path class="cls-4" d="M9.14,7.18C4.05,8,3,13.46,3,13.46S.21,13.54.29,15.63c.13,3.06,10.65,2.37,10.27-.8C10.35,13.06,7,13.46,7,13.46s-.24-3.17,1.34-4.07c.85-.37,1.09-1.7.54-3s-1.69-2-2.54-1.63" transform="translate(0.04 0.04)"/><path class="cls-5" d="M9.14,7.18C4.05,8,3,13.46,3,13.46S.21,13.54.29,15.63c.13,3.06,10.65,2.37,10.27-.8C10.35,13.06,7,13.46,7,13.46s-.24-3.17,1.34-4.07c.85-.37,1.09-1.7.54-3s-1.69-2-2.54-1.63" transform="translate(0.04 0.04)"/></g></g></g></svg>