<svg xmlns="http://www.w3.org/2000/svg" xmlns:xlink="http://www.w3.org/1999/xlink" viewBox="0 0 15.12 21.86"><defs><style>.cls-1,.cls-5{fill:none;}.cls-2{fill:#303030;}.cls-3{clip-path:url(#clip-path);}.cls-4{fill:#fff;}.cls-5{stroke:#303030;stroke-linejoin:round;stroke-width:0.58px;}</style><clipPath id="clip-path" transform="translate(0 0)"><rect class="cls-1" width="15.12" height="21.86"/></clipPath></defs><g id="图层_2" data-name="图层 2"><g id="图层_1-2" data-name="图层 1"><polygon class="cls-2" points="0.84 15.47 1.49 13.82 0.04 13.78 0.84 15.47"/><g class="cls-3"><path class="cls-2" d="M6.48,10.29l-.23.61v-.67l.22,0h0" transform="translate(0 0)"/></g><polygon class="cls-2" points="0.56 10.88 0.01 12.35 0.56 12.35 1.11 10.88 0.56 10.88"/><g class="cls-3"><path class="cls-2" d="M6.48,10.29l-.23.61v-.67l.22,0h0" transform="translate(0 0)"/><path class="cls-2" d="M6.47,10.28l-.22.6v-.66l.22.06" transform="translate(0 0)"/><path class="cls-2" d="M6.47,10.28h0l-.23.61v-.67l.22.06" transform="translate(0 0)"/></g><polygon class="cls-2" points="7.29 8.12 7.3 8.12 7.83 6.72 7.83 6.66 7.29 8.12"/><g class="cls-3"><path class="cls-2" d="M7,12.65V12L7.2,12h0Zm8-2.78H8.27a.18.18,0,0,1-.17-.24l.45-1.19a.13.13,0,0,0,0-.06V6.54a.19.19,0,0,1,.18-.19h4.75a.18.18,0,0,0,.17-.12l1.45-3.86a.19.19,0,0,0-.17-.25H8.68a.19.19,0,0,0-.17.12L7,6.32a.14.14,0,0,0,0,.07V8.23a.18.18,0,0,1-.18.18H2.45a.19.19,0,0,0-.17.12L.83,12.39a.19.19,0,0,0,.17.25h.57a.18.18,0,0,1,.17.25L.83,15.33a.18.18,0,0,0,.16.24A16.9,16.9,0,0,1,12.3,21.79a.18.18,0,0,0,.31-.05c1.39-3.69.56-1.47,1.83-4.85a.2.2,0,0,0,0-.17,8.89,8.89,0,0,0-2.11-2.29.18.18,0,0,1,.11-.33h1.07a.18.18,0,0,0,.17-.11l1.45-3.87a.19.19,0,0,0-.17-.25" transform="translate(0 0)"/><path class="cls-4" d="M12.16,19.5C8,13.67.29,13.67.29,13.67L1.86,9.5s8.67,0,12,5.39c-1.57,4.17-.14.43-1.72,4.61" transform="translate(0 0)"/><path class="cls-5" d="M12.16,19.5C8,13.67.29,13.67.29,13.67L1.86,9.5s8.67,0,12,5.39C12.31,19.06,13.74,15.32,12.16,19.5Z" transform="translate(0 0)"/></g><polygon class="cls-4" points="1.86 8.04 0.29 12.13 13.04 12.13 14.61 8.04 1.86 8.04"/><g class="cls-3"><polygon class="cls-5" points="13.04 12.13 0.29 12.13 1.86 8.04 14.61 8.04 13.04 12.13"/></g><polygon class="cls-4" points="1.85 6.58 0.29 10.67 6.41 10.67 7.97 6.58 1.85 6.58"/><g class="cls-3"><polygon class="cls-5" points="6.41 10.67 0.29 10.67 1.85 6.58 7.97 6.58 6.41 10.67"/></g><polygon class="cls-4" points="7.97 4.52 7.97 6.59 6.52 10.68 6.52 4.52 7.97 4.52"/><polygon class="cls-5" points="7.97 4.52 7.97 6.59 6.52 10.68 6.52 4.52 7.97 4.52"/><polygon class="cls-4" points="8.08 0.29 6.52 4.38 13.05 4.38 14.61 0.29 8.08 0.29"/><g class="cls-3"><polygon class="cls-5" points="14.61 0.29 13.05 4.38 6.52 4.38 8.08 0.29 14.61 0.29"/></g><polygon class="cls-2" points="14.07 2.38 15.1 2.24 14.87 0.15 14.07 2.38"/><polygon class="cls-2" points="13.95 10.32 15.12 10.04 14.89 7.93 13.95 10.32"/><polygon class="cls-2" points="13.64 16.06 14.45 16.79 14.16 14.87 13.64 16.06"/></g></g></svg>