<svg xmlns="http://www.w3.org/2000/svg" viewBox="0 0 355.22 524.53">
    <defs>
        <style>.collegeCls-1{fill:#fff;}.collegeCls-2{fill:#595757;opacity:0.2;}</style>
    </defs>
    <g id="图层_2" data-name="图层 2">
        <g id="图层_1-2" data-name="图层 1">
            <path class="collegeCls-1"
                d="M14.23,488.45h91.63l69.29,35.48a5.34,5.34,0,0,0,4.92,0l69.29-35.48H341a4.34,4.34,0,0,0,4.34-4.34V370.92a4.34,4.34,0,0,0-4.34-4.34H14.23a4.34,4.34,0,0,0-4.34,4.34V484.11A4.34,4.34,0,0,0,14.23,488.45Zm220.23-98.54a3,3,0,0,1-2.13.88H122.89a3,3,0,1,1,0-6H232.33a3,3,0,0,1,2.13,5.15Zm4.28,8.89v51.38a17.93,17.93,0,0,1-35.85,0V398.8a3.46,3.46,0,0,1,3.46-3.46h28.93A3.46,3.46,0,0,1,238.74,398.8Zm-43.21,0v51.38a17.92,17.92,0,0,1-35.84,0V398.8a3.46,3.46,0,0,1,3.46-3.46h28.92A3.46,3.46,0,0,1,195.53,398.8Zm-75.59-3.46h28.92a3.45,3.45,0,0,1,3.46,3.46v51.38a17.92,17.92,0,0,1-35.84,0V398.8A3.46,3.46,0,0,1,119.94,395.34Zm60.13,122.27a5.4,5.4,0,0,1-4.92,0L118.2,488.45l-1.56-.8a2,2,0,0,1,.93-3.84H237.65a2,2,0,0,1,.92,3.84l-1.56.8ZM311.75,389.4a4.64,4.64,0,0,1,4.64-4.64h3.35a4.64,4.64,0,0,1,4.64,4.64v14.34a4.63,4.63,0,0,1-4.64,4.63h-3.35a4.63,4.63,0,0,1-4.64-4.63Zm0,30.45a4.64,4.64,0,0,1,4.64-4.64h3.35a4.64,4.64,0,0,1,4.64,4.64v14.34a4.63,4.63,0,0,1-4.64,4.63h-3.35a4.63,4.63,0,0,1-4.64-4.63Zm0,30.45a4.64,4.64,0,0,1,4.64-4.64h3.35a4.64,4.64,0,0,1,4.64,4.64v14.34a4.63,4.63,0,0,1-4.64,4.63h-3.35a4.63,4.63,0,0,1-4.64-4.63Zm-20-60.9a4.64,4.64,0,0,1,4.64-4.64h3.35a4.64,4.64,0,0,1,4.64,4.64v14.34a4.63,4.63,0,0,1-4.64,4.63H296.4a4.63,4.63,0,0,1-4.64-4.63Zm0,30.45a4.64,4.64,0,0,1,4.64-4.64h3.35a4.64,4.64,0,0,1,4.64,4.64v14.34a4.63,4.63,0,0,1-4.64,4.63H296.4a4.63,4.63,0,0,1-4.64-4.63Zm0,30.45a4.64,4.64,0,0,1,4.64-4.64h3.35a4.64,4.64,0,0,1,4.64,4.64v14.34a4.63,4.63,0,0,1-4.64,4.63H296.4a4.63,4.63,0,0,1-4.64-4.63Zm-20-60.9a4.63,4.63,0,0,1,4.63-4.64h3.35a4.64,4.64,0,0,1,4.64,4.64v14.34a4.63,4.63,0,0,1-4.64,4.63h-3.35a4.63,4.63,0,0,1-4.63-4.63Zm0,30.45a4.63,4.63,0,0,1,4.63-4.64h3.35a4.64,4.64,0,0,1,4.64,4.64v14.34a4.63,4.63,0,0,1-4.64,4.63h-3.35a4.63,4.63,0,0,1-4.63-4.63Zm0,30.45a4.63,4.63,0,0,1,4.63-4.64h3.35a4.64,4.64,0,0,1,4.64,4.64v14.34a4.63,4.63,0,0,1-4.64,4.63h-3.35a4.63,4.63,0,0,1-4.63-4.63ZM114.57,374.51a3,3,0,0,1,2.14-.88h121.8a3,3,0,1,1,0,6H116.71a3,3,0,0,1-2.14-5.15ZM70.82,389.4a4.63,4.63,0,0,1,4.63-4.64h3.36a4.63,4.63,0,0,1,4.63,4.64v14.34a4.63,4.63,0,0,1-4.63,4.63H75.45a4.63,4.63,0,0,1-4.63-4.63Zm0,30.45a4.63,4.63,0,0,1,4.63-4.64h3.36a4.63,4.63,0,0,1,4.63,4.64v14.34a4.63,4.63,0,0,1-4.63,4.63H75.45a4.63,4.63,0,0,1-4.63-4.63Zm0,30.45a4.63,4.63,0,0,1,4.63-4.64h3.36a4.63,4.63,0,0,1,4.63,4.64v14.34a4.63,4.63,0,0,1-4.63,4.63H75.45a4.63,4.63,0,0,1-4.63-4.63Zm-20-60.9a4.63,4.63,0,0,1,4.63-4.64h3.36a4.63,4.63,0,0,1,4.63,4.64v14.34a4.63,4.63,0,0,1-4.63,4.63H55.46a4.63,4.63,0,0,1-4.63-4.63Zm0,30.45a4.63,4.63,0,0,1,4.63-4.64h3.36a4.63,4.63,0,0,1,4.63,4.64v14.34a4.63,4.63,0,0,1-4.63,4.63H55.46a4.63,4.63,0,0,1-4.63-4.63Zm0,30.45a4.63,4.63,0,0,1,4.63-4.64h3.36a4.63,4.63,0,0,1,4.63,4.64v14.34a4.63,4.63,0,0,1-4.63,4.63H55.46a4.63,4.63,0,0,1-4.63-4.63Zm-20-60.9a4.64,4.64,0,0,1,4.64-4.64h3.35a4.64,4.64,0,0,1,4.64,4.64v14.34a4.63,4.63,0,0,1-4.64,4.63H35.48a4.63,4.63,0,0,1-4.64-4.63Zm0,30.45a4.64,4.64,0,0,1,4.64-4.64h3.35a4.64,4.64,0,0,1,4.64,4.64v14.34a4.63,4.63,0,0,1-4.64,4.63H35.48a4.63,4.63,0,0,1-4.64-4.63Zm0,30.45a4.64,4.64,0,0,1,4.64-4.64h3.35a4.64,4.64,0,0,1,4.64,4.64v14.34a4.63,4.63,0,0,1-4.64,4.63H35.48a4.63,4.63,0,0,1-4.64-4.63Z" />
            <circle class="collegeCls-1" cx="177.61" cy="500.2" r="8.64" />
            <path class="collegeCls-1"
                d="M4.72,133.7H9.89v18.87a4.3,4.3,0,0,0,4.29,4.3H217V127c-6-2.56-10.15-7.49-10.15-13.16,0-8.29,8.77-15,19.59-15s19.6,6.73,19.6,15c0,5.67-4.1,10.6-10.16,13.16v29.83H341a4.31,4.31,0,0,0,4.3-4.3V133.7h5.16a4.72,4.72,0,0,0,4-7.27c-33.47-51.92-84.1-82.88-138-92.85V11.9a11.9,11.9,0,0,0-23.8,0V38.82H162.58V11.9a11.9,11.9,0,1,0-23.8,0V33.58c-53.92,10-104.55,40.93-138,92.85A4.71,4.71,0,0,0,4.72,133.7Zm276.4,8.5a4.31,4.31,0,0,1-4.3,4.3H262.4a4.3,4.3,0,0,1-4.3-4.3v-8.5h23Zm40,0a4.31,4.31,0,0,1-4.3,4.3H302.4a4.3,4.3,0,0,1-4.29-4.3v-8.5h23Zm-115-129.39a1.24,1.24,0,0,1,1.24-1.24h3A3.44,3.44,0,0,1,213.83,15V20.4a3.44,3.44,0,0,1-3.44,3.44h-3a1.24,1.24,0,0,1-1.24-1.24ZM141.39,15a3.44,3.44,0,0,1,3.43-3.44h3A1.23,1.23,0,0,1,149,12.81V22.6a1.23,1.23,0,0,1-1.24,1.24h-3a3.44,3.44,0,0,1-3.43-3.44ZM57.11,142.2a4.31,4.31,0,0,1-4.3,4.3H38.39a4.3,4.3,0,0,1-4.3-4.3v-8.5h23Zm36.9,0a4.31,4.31,0,0,1-4.3,4.3H75.29a4.3,4.3,0,0,1-4.3-4.3v-8.5H94Z" />
            <rect class="collegeCls-2" x="9.89" y="133.7" width="335.31" height="23.17" />
        </g>
    </g>
</svg>