<svg xmlns="http://www.w3.org/2000/svg" viewBox="0 0 106.24 103.53"><defs><style>.cls-1{fill:#fff;}.cls-2{fill:#222;}</style></defs><g id="图层_2" data-name="图层 2"><g id="图层_1-2" data-name="图层 1"><path class="cls-1" d="M67.63,15l.65,15.2A4,4,0,0,1,66,34l-3.26,1.56a9.2,9.2,0,0,0-5.23,8.69l.06,1.38a4.32,4.32,0,0,1-4.14,4.51h0A4.32,4.32,0,0,1,48.91,46l-.06-1.38a9.2,9.2,0,0,0-6-8.22l-3.38-1.27a4,4,0,0,1-2.59-3.58l-.64-15A15.84,15.84,0,0,1,51.23,0a15.67,15.67,0,0,1,16.4,15Z"/><path class="cls-1" d="M19.89,29.37l14.65,4.08a4,4,0,0,1,2.9,3.33l.47,3.59A9.19,9.19,0,0,0,44.56,48l1.33.37a4.34,4.34,0,0,1,3,5.34h0a4.35,4.35,0,0,1-5.35,3l-1.33-.37a9.17,9.17,0,0,0-9.64,3.11l-2.26,2.83a4,4,0,0,1-4.2,1.36l-14.43-4A15.85,15.85,0,0,1,.55,40.33a15.69,15.69,0,0,1,19.34-11Z"/><path class="cls-1" d="M18.78,79.2l8.41-12.67a4,4,0,0,1,4.07-1.72l3.55.65a9.19,9.19,0,0,0,9.34-3.95l.76-1.15a4.33,4.33,0,0,1,6-1.22h0a4.33,4.33,0,0,1,1.22,6l-.77,1.15a9.2,9.2,0,0,0,0,10.14l2,3a4,4,0,0,1,0,4.42L45.06,96.36A15.84,15.84,0,0,1,23.23,101,15.7,15.7,0,0,1,18.78,79.2Z"/><path class="cls-1" d="M65.84,95.66,56.38,83.75a4,4,0,0,1-.38-4.4l1.72-3.18a9.17,9.17,0,0,0-.88-10.1L56,65a4.34,4.34,0,0,1,.7-6.1h0a4.34,4.34,0,0,1,6.09.7l.86,1.09a9.18,9.18,0,0,0,9.63,3.14l3.49-1A4,4,0,0,1,81,64.24L90.27,76a15.83,15.83,0,0,1-2.35,22.19,15.69,15.69,0,0,1-22.08-2.5Z"/><path class="cls-1" d="M96,56,81.78,61.3a4,4,0,0,1-4.31-1L75,57.69a9.16,9.16,0,0,0-9.87-2.29l-1.3.48a4.33,4.33,0,0,1-5.58-2.55h0a4.34,4.34,0,0,1,2.55-5.57l1.3-.49a9.19,9.19,0,0,0,6-8.19l.17-3.61a4,4,0,0,1,2.6-3.57l14-5.23a15.84,15.84,0,0,1,20.38,9.09A15.68,15.68,0,0,1,96,56Z"/><rect class="cls-2" x="52.23" y="39.21" width="2.19" height="17.01" rx="1.09" transform="translate(-1.98 2.31) rotate(-2.44)"/><rect class="cls-2" x="47.8" y="40.87" width="2.19" height="17.01" rx="1.09" transform="translate(-20.1 41.1) rotate(-38.44)"/><rect class="cls-2" x="45.18" y="44.81" width="2.19" height="17.01" rx="1.09" transform="translate(-17.49 83.59) rotate(-74.44)"/><rect class="cls-2" x="45.39" y="49.53" width="2.19" height="17.01" rx="1.09" transform="matrix(-0.35, -0.94, 0.94, -0.35, 8.33, 121.85)"/><rect class="cls-2" x="48.33" y="53.23" width="2.19" height="17.01" rx="1.09" transform="translate(56.47 140.5) rotate(-146.44)"/><rect class="cls-2" x="52.88" y="54.5" width="2.19" height="17.01" rx="1.09" transform="translate(110.58 123.65) rotate(177.56)"/><rect class="cls-2" x="57.31" y="52.85" width="2.19" height="17.01" rx="1.09" transform="translate(142.29 73.1) rotate(141.56)"/><rect class="cls-2" x="59.92" y="48.91" width="2.19" height="17.01" rx="1.09" transform="translate(132.69 14.03) rotate(105.56)"/><rect class="cls-2" x="59.72" y="44.19" width="2.19" height="17.01" rx="1.09" transform="translate(88.95 -22.7) rotate(69.56)"/><rect class="cls-2" x="56.78" y="40.48" width="2.19" height="17.01" rx="1.09" transform="translate(36.73 -23.83) rotate(33.56)"/></g></g></svg>