<svg xmlns="http://www.w3.org/2000/svg" xmlns:xlink="http://www.w3.org/1999/xlink" viewBox="0 0 106.24 103.53"><defs><style>.cls-1{fill:#fff;}.cls-2{fill:#222;}.cls-3{fill:url(#未命名的渐变_28);}.cls-4{fill:#e8402c;}.cls-5{fill:url(#未命名的渐变_28-2);}.cls-6{fill:url(#未命名的渐变_28-3);}.cls-7{fill:url(#未命名的渐变_28-4);}.cls-8{fill:url(#未命名的渐变_28-5);}.cls-9{fill:url(#未命名的渐变_28-6);}.cls-10{fill:url(#未命名的渐变_28-7);}.cls-11{fill:url(#未命名的渐变_28-8);}.cls-12{fill:url(#未命名的渐变_28-9);}.cls-13{fill:url(#未命名的渐变_28-10);}</style><linearGradient id="未命名的渐变_28" x1="-901.56" y1="-353.61" x2="-901.56" y2="-373.02" gradientTransform="translate(953.94 386.5)" gradientUnits="userSpaceOnUse"><stop offset="0" stop-color="#fff" stop-opacity="0"/><stop offset="1" stop-color="#fff"/></linearGradient><linearGradient id="未命名的渐变_28-2" x1="-618.92" y1="-1547.29" x2="-618.92" y2="-1566.7" gradientTransform="translate(652.73 1587.05)" xlink:href="#未命名的渐变_28"/><linearGradient id="未命名的渐变_28-3" x1="311.37" y1="-2346.87" x2="311.37" y2="-2366.28" gradientTransform="translate(-288.55 2403.08)" xlink:href="#未命名的渐变_28"/><linearGradient id="未命名的渐变_28-4" x1="1533.98" y1="-2446.93" x2="1533.98" y2="-2466.34" gradientTransform="translate(-1510.37 2522.91)" xlink:href="#未命名的渐变_28"/><linearGradient id="未命名的渐变_28-5" x1="2581.89" y1="-1809.25" x2="2581.89" y2="-1828.66" gradientTransform="translate(-2546.03 1900.77)" xlink:href="#未命名的渐变_28"/><linearGradient id="未命名的渐变_28-6" x1="3054.86" y1="-677.41" x2="3054.86" y2="-696.82" gradientTransform="translate(-2999.94 774.29)" xlink:href="#未命名的渐变_28"/><linearGradient id="未命名的渐变_28-7" x1="2772.22" y1="516.27" x2="2772.22" y2="496.86" gradientTransform="translate(-2698.74 -426.25)" xlink:href="#未命名的渐变_28"/><linearGradient id="未命名的渐变_28-8" x1="1841.93" y1="1315.85" x2="1841.93" y2="1296.44" gradientTransform="translate(-1757.46 -1242.28)" xlink:href="#未命名的渐变_28"/><linearGradient id="未命名的渐变_28-9" x1="619.32" y1="1415.91" x2="619.32" y2="1396.5" gradientTransform="translate(-535.64 -1362.12)" xlink:href="#未命名的渐变_28"/><linearGradient id="未命名的渐变_28-10" x1="-428.6" y1="778.23" x2="-428.6" y2="758.82" gradientTransform="translate(500.02 -739.97)" xlink:href="#未命名的渐变_28"/></defs><g id="图层_2" data-name="图层 2"><g id="图层_1-2" data-name="图层 1"><path class="cls-1" d="M67.63,15l.65,15.2A4,4,0,0,1,66,34l-3.26,1.56a9.2,9.2,0,0,0-5.23,8.69l.06,1.38a4.32,4.32,0,0,1-4.14,4.51h0A4.32,4.32,0,0,1,48.91,46l-.06-1.38a9.2,9.2,0,0,0-6-8.22l-3.38-1.27a4,4,0,0,1-2.59-3.58l-.64-15A15.84,15.84,0,0,1,51.23,0a15.67,15.67,0,0,1,16.4,15Z"/><path class="cls-1" d="M19.89,29.37l14.65,4.08a4,4,0,0,1,2.9,3.33l.47,3.59A9.19,9.19,0,0,0,44.56,48l1.33.37a4.34,4.34,0,0,1,3,5.34h0a4.35,4.35,0,0,1-5.35,3l-1.33-.37a9.17,9.17,0,0,0-9.64,3.11l-2.26,2.83a4,4,0,0,1-4.2,1.36l-14.43-4A15.85,15.85,0,0,1,.55,40.33a15.69,15.69,0,0,1,19.34-11Z"/><path class="cls-1" d="M18.78,79.2l8.41-12.67a4,4,0,0,1,4.07-1.72l3.55.65a9.19,9.19,0,0,0,9.34-3.95l.76-1.15a4.33,4.33,0,0,1,6-1.22h0a4.33,4.33,0,0,1,1.22,6l-.77,1.15a9.2,9.2,0,0,0,0,10.14l2,3a4,4,0,0,1,0,4.42L45.06,96.36A15.84,15.84,0,0,1,23.23,101,15.7,15.7,0,0,1,18.78,79.2Z"/><path class="cls-1" d="M65.84,95.66,56.38,83.75a4,4,0,0,1-.38-4.4l1.72-3.18a9.17,9.17,0,0,0-.88-10.1L56,65a4.34,4.34,0,0,1,.7-6.1h0a4.34,4.34,0,0,1,6.09.7l.86,1.09a9.18,9.18,0,0,0,9.63,3.14l3.49-1A4,4,0,0,1,81,64.24L90.27,76a15.83,15.83,0,0,1-2.35,22.19,15.69,15.69,0,0,1-22.08-2.5Z"/><path class="cls-1" d="M96,56,81.78,61.3a4,4,0,0,1-4.31-1L75,57.69a9.16,9.16,0,0,0-9.87-2.29l-1.3.48a4.33,4.33,0,0,1-5.58-2.55h0a4.34,4.34,0,0,1,2.55-5.57l1.3-.49a9.19,9.19,0,0,0,6-8.19l.17-3.61a4,4,0,0,1,2.6-3.57l14-5.23a15.84,15.84,0,0,1,20.38,9.09A15.68,15.68,0,0,1,96,56Z"/><rect class="cls-2" x="52.23" y="39.21" width="2.19" height="17.01" rx="1.09" transform="translate(-1.98 2.31) rotate(-2.44)"/><rect class="cls-2" x="47.8" y="40.87" width="2.19" height="17.01" rx="1.09" transform="translate(-20.1 41.1) rotate(-38.44)"/><rect class="cls-2" x="45.18" y="44.81" width="2.19" height="17.01" rx="1.09" transform="translate(-17.49 83.59) rotate(-74.44)"/><rect class="cls-2" x="45.39" y="49.53" width="2.19" height="17.01" rx="1.09" transform="translate(8.33 121.85) rotate(-110.44)"/><rect class="cls-2" x="48.33" y="53.23" width="2.19" height="17.01" rx="1.09" transform="translate(56.47 140.5) rotate(-146.44)"/><rect class="cls-2" x="52.88" y="54.5" width="2.19" height="17.01" rx="1.09" transform="translate(110.58 123.65) rotate(177.56)"/><rect class="cls-2" x="57.31" y="52.85" width="2.19" height="17.01" rx="1.09" transform="translate(142.29 73.1) rotate(141.56)"/><rect class="cls-2" x="59.92" y="48.91" width="2.19" height="17.01" rx="1.09" transform="translate(132.69 14.03) rotate(105.56)"/><rect class="cls-2" x="59.72" y="44.19" width="2.19" height="17.01" rx="1.09" transform="translate(88.95 -22.7) rotate(69.56)"/><rect class="cls-2" x="56.78" y="40.48" width="2.19" height="17.01" rx="1.09" transform="translate(36.73 -23.83) rotate(33.56)"/><rect class="cls-3" x="51.87" y="13.48" width="1.01" height="19.41" transform="translate(-0.94 2.25) rotate(-2.44)"/><rect class="cls-4" x="49.15" y="10.23" width="5.51" height="3.56" rx="1.78" transform="translate(-0.46 2.22) rotate(-2.44)"/><rect class="cls-5" x="33.31" y="20.34" width="1.01" height="19.41" transform="translate(-11.35 27.53) rotate(-38.44)"/><rect class="cls-4" x="24.1" y="19.5" width="5.51" height="3.56" rx="1.78" transform="translate(-7.41 21.31) rotate(-38.44)"/><rect class="cls-6" x="22.32" y="36.8" width="1.01" height="19.41" transform="translate(-28.1 56.02) rotate(-74.44)"/><rect class="cls-4" x="9.29" y="41.73" width="5.51" height="3.56" rx="1.78" transform="translate(-33.09 43.44) rotate(-74.44)"/><rect class="cls-7" x="23.1" y="56.57" width="1.01" height="19.41" transform="translate(-30.25 111.55) rotate(-110.44)"/><rect class="cls-4" x="10.37" y="68.41" width="5.51" height="3.56" rx="1.78" transform="translate(-48.06 107) rotate(-110.44)"/><rect class="cls-8" x="35.36" y="72.11" width="1.01" height="19.41" transform="translate(20.53 169.82) rotate(-146.44)"/><rect class="cls-4" x="26.93" y="89.36" width="5.51" height="3.56" rx="1.78" transform="translate(4.04 183.49) rotate(-146.44)"/><rect class="cls-9" x="54.41" y="77.48" width="1.01" height="19.41" transform="translate(113.5 171.94) rotate(177.56)"/><rect class="cls-4" x="52.64" y="96.58" width="5.51" height="3.56" rx="1.78" transform="translate(114.93 194.26) rotate(177.56)"/><rect class="cls-10" x="72.97" y="70.62" width="1.01" height="19.41" transform="translate(180.97 97.55) rotate(141.56)"/><rect class="cls-4" x="77.68" y="87.31" width="5.51" height="3.56" rx="1.78" transform="translate(198.82 108.85) rotate(141.56)"/><rect class="cls-11" x="83.96" y="54.16" width="1.01" height="19.41" transform="translate(168.65 -0.38) rotate(105.56)"/><rect class="cls-4" x="92.49" y="65.09" width="5.51" height="3.56" rx="1.78" transform="translate(185.21 -6.96) rotate(105.56)"/><rect class="cls-12" x="83.18" y="34.38" width="1.01" height="19.41" transform="translate(95.77 -49.72) rotate(69.56)"/><rect class="cls-4" x="91.41" y="38.4" width="5.51" height="3.56" rx="1.78" transform="translate(98.93 -62.09) rotate(69.56)"/><rect class="cls-13" x="70.92" y="18.85" width="1.01" height="19.41" transform="matrix(0.83, 0.55, -0.55, 0.83, 27.69, -34.72)"/><rect class="cls-4" x="74.86" y="17.45" width="5.51" height="3.56" rx="1.78" transform="translate(23.57 -39.7) rotate(33.56)"/></g></g></svg>