<svg xmlns="http://www.w3.org/2000/svg" viewBox="0 0 121.49 257.44"><defs><style>.cls-1,.cls-8,.cls-9{fill:none;stroke:#f7f8f8;stroke-miterlimit:10;}.cls-1{stroke-width:2px;}.cls-1,.cls-2{opacity:0.7;}.cls-3{fill:#fff;}.cls-4{fill:#222;}.cls-5{fill:#cecece;}.cls-6{fill:#939393;}.cls-7{fill:#f7f8f8;}.cls-8{opacity:0.5;}</style></defs><g id="图层_2" data-name="图层 2"><g id="图层_1-2" data-name="图层 1"><path class="cls-1" d="M24,65.53A189.78,189.78,0,0,0,22.36,108c4.4,53.09,25,83.65,18.28,143.57"/><g class="cls-2"><path class="cls-3" d="M38.06,7.74l1.62,9a2.41,2.41,0,0,1-1,2.44l-1.81,1.19a5.5,5.5,0,0,0-2.4,5.58l.15.81a2.6,2.6,0,0,1-2.1,3h0a2.59,2.59,0,0,1-3-2.09l-.15-.82a5.53,5.53,0,0,0-4.19-4.4L23,22a2.4,2.4,0,0,1-1.83-1.91l-1.59-8.84a9.5,9.5,0,0,1,7.54-11,9.39,9.39,0,0,1,11,7.58Z"/><path class="cls-3" d="M10.87,20.13l9,1.23a2.4,2.4,0,0,1,2,1.75l.57,2.09a5.51,5.51,0,0,0,4.57,4l.82.11a2.6,2.6,0,0,1,2.22,2.93h0a2.59,2.59,0,0,1-2.93,2.22l-.82-.11A5.51,5.51,0,0,0,20.85,37l-1.12,1.86A2.39,2.39,0,0,1,17.35,40l-8.9-1.22A9.49,9.49,0,0,1,.27,28.2a9.38,9.38,0,0,1,10.6-8.07Z"/><path class="cls-3" d="M14.24,49.82l4-8.21a2.39,2.39,0,0,1,2.28-1.35l2.16.1a5.52,5.52,0,0,0,5.23-3.11l.36-.74a2.59,2.59,0,0,1,3.47-1.21h0a2.6,2.6,0,0,1,1.21,3.47l-.36.75a5.49,5.49,0,0,0,.81,6l1.42,1.63a2.4,2.4,0,0,1,.36,2.63l-3.91,8.08A9.5,9.5,0,0,1,18.65,62.4a9.41,9.41,0,0,1-4.41-12.58Z"/><path class="cls-3" d="M43.52,55.78l-6.58-6.31a2.4,2.4,0,0,1-.58-2.58l.77-2a5.51,5.51,0,0,0-1.34-5.92l-.6-.58a2.59,2.59,0,0,1-.08-3.67h0a2.61,2.61,0,0,1,3.68-.08l.6.57a5.5,5.5,0,0,0,6,1.09l2-.85a2.38,2.38,0,0,1,2.6.48l6.48,6.21a9.49,9.49,0,0,1,.41,13.37,9.41,9.41,0,0,1-13.33.3Z"/><path class="cls-3" d="M58.25,29.78l-8,4.31a2.42,2.42,0,0,1-2.64-.24l-1.69-1.36a5.52,5.52,0,0,0-6.05-.56l-.73.39a2.6,2.6,0,0,1-3.52-1.06h0a2.6,2.6,0,0,1,1.07-3.52l.73-.39A5.52,5.52,0,0,0,40.26,22l-.19-2.16a2.38,2.38,0,0,1,1.25-2.33l7.91-4.24A9.51,9.51,0,0,1,62.08,17a9.4,9.4,0,0,1-3.83,12.76Z"/><rect class="cls-4" x="31.55" y="23.22" width="1.31" height="10.19" rx="0.66" transform="translate(-4.51 6.15) rotate(-10.2)"/><rect class="cls-4" x="29.06" y="24.56" width="1.31" height="10.19" rx="0.66" transform="translate(-12.26 30.58) rotate(-46.2)"/><rect class="cls-4" x="27.82" y="27.11" width="1.31" height="10.19" rx="0.66" transform="translate(-7.3 56.06) rotate(-82.2)"/><rect class="cls-4" x="28.33" y="29.9" width="1.31" height="10.19" rx="0.66" transform="translate(11.83 77.08) rotate(-118.2)"/><rect class="cls-4" x="30.37" y="31.87" width="1.31" height="10.19" rx="0.66" transform="translate(42.87 83.75) rotate(-154.2)"/><rect class="cls-4" x="33.18" y="32.25" width="1.31" height="10.19" rx="0.66" transform="translate(73.75 68.12) rotate(169.8)"/><rect class="cls-4" x="35.68" y="30.91" width="1.31" height="10.19" rx="0.66" transform="translate(87.47 34.71) rotate(133.8)"/><rect class="cls-4" x="36.91" y="28.36" width="1.31" height="10.19" rx="0.66" transform="matrix(-0.14, 0.99, -0.99, -0.14, 75.81, 0.78)"/><rect class="cls-4" x="36.41" y="25.57" width="1.31" height="10.19" rx="0.66" transform="translate(46.58 -16.49) rotate(61.8)"/><rect class="cls-4" x="34.36" y="23.61" width="1.31" height="10.19" rx="0.66" transform="translate(15.98 -12.38) rotate(25.8)"/></g><g class="cls-2"><path class="cls-5" d="M59.85,151.58s-30.52,2-22.51,22.81C58.28,182.11,59.85,151.58,59.85,151.58Z"/><path class="cls-6" d="M59.85,151.58S35.88,153.14,36,168l22-6.13A48.32,48.32,0,0,0,59.85,151.58Z"/><path class="cls-3" d="M53.86,170.31l.12-.16-9-3.31,5-5,7.07,2.61a1.34,1.34,0,0,0,.07-.18l-7-2.58,5-5L58.93,158c0-.06,0-.12,0-.19l-3.72-1.37,4.58-4.64c0-.16,0-.24,0-.24H59.6L55,156.24l-1.42-3.7-.19,0,1.47,3.8-5,5-2.67-7-.18.08,2.71,7-5,5-3.43-8.92-.15.12,3.44,8.95-5,5-3-7.87-.1.28,3,7.74-2.24,2.27.06.17.17.06,2.24-2.27,7.78,2.87.28-.1L39.9,172l5-5Z"/><path class="cls-3" d="M59.78,151.58H59.6L55,156.24l-1.42-3.7-.19,0,1.47,3.8-5,5-2.67-6.95-.18.07,2.71,7-3.51,3.56.63-.18L50,161.8l3.52,1.3.31-.09-3.69-1.36,5-5L58.93,158c0-.06,0-.12,0-.19l-3.72-1.37,4.58-4.64h0v-.16h0v-.06h-.07Z"/><path class="cls-3" d="M41.2,157.82l3,7.87.18-.05-3.06-7.94Z"/><path class="cls-3" d="M36.55,164.22l1.25,3.27.19-.05-1.35-3.5Z"/></g><g class="cls-2"><path class="cls-5" d="M0,152.84s14.37,27,30.06,11.11C28.47,141.69,0,152.84,0,152.84Z"/><path class="cls-6" d="M0,152.84s11.29,21.2,24.78,15L10.16,150.34A47.55,47.55,0,0,0,0,152.84Z"/><path class="cls-3" d="M19.53,150.58l-.19,0,.68,9.53-6.64-2.46-.54-7.52h-.19l.53,7.44-6.64-2.45L6.25,151l-.18,0L6.35,155,.23,152.75l-.23.09.12.22,6.11,2.26-2.78,2.82.11.15,2.87-2.9,6.64,2.46-5.24,5.3.14.13,5.29-5.36,6.65,2.45-6.72,6.8.17.1,6.74-6.82,6.64,2.45-5.93,6,.3,0,5.83-5.9,3,1.11.13-.13c0-.06,0-.11,0-.17l-3-1.11-.59-8.27-.2-.22.6,8.42-6.65-2.46Z"/><path class="cls-3" d="M0,152.9l0,0,0,0,0,.05,0,0,6.11,2.26-2.78,2.82.11.15,2.87-2.9,6.64,2.46-5.24,5.3.14.13,5.29-5.36L18,159.65l-.42-.5-4.15-1.54-.27-3.74-.21-.25.28,3.92-6.64-2.45L6.25,151l-.18,0L6.35,155,.23,152.75h0l-.08,0h0l-.06,0H0l0,0Z"/><path class="cls-3" d="M13.37,167.26l5.93-6-.12-.15-6,6.06Z"/><path class="cls-3" d="M21.11,168.87l2.47-2.5-.12-.14-2.64,2.67Z"/></g><circle class="cls-7" cx="40.7" cy="251.58" r="5.86"/><line class="cls-8" x1="46.56" y1="251.58" x2="118" y2="251.58"/><circle class="cls-7" cx="32.63" cy="32.74" r="5.86"/><line class="cls-8" x1="38.48" y1="32.74" x2="118" y2="32.74"/><line class="cls-9" x1="114.12" y1="49.04" x2="114.12" y2="251.58"/><path class="cls-7" d="M114.12,52.63l7.2,4.38.17-.24L116.82,45l-2.7-12.28q-1.35,6.13-2.71,12.28l-4.66,11.75.12.24Z"/></g></g></svg>